    <svg width="54" height="53" viewBox="0 0 54 53" fill="black" xmlns="http://www.w3.org/2000/svg">
      <path
        d="M20.7485 17.5708L27.0002 3.82931L33.2542 17.5737C33.6879 18.5267 34.587 19.1846 35.6265 19.3097L50.5039 21.0994L39.4766 31.4374C38.7228 32.1441 38.3857 33.1889 38.5844 34.2029L41.5053 49.1087L28.4807 41.7176L27.4936 43.457L28.4807 41.7176C27.5623 41.1964 26.4375 41.1964 25.5191 41.7177L12.4948 49.1108L15.4156 34.2055C15.6143 33.1917 15.2774 32.1471 14.5238 31.4404L3.49502 21.0969L18.3761 19.307C19.4157 19.1819 20.3149 18.5239 20.7485 17.5708ZM10.6011 50.1857C10.6018 50.1854 10.6024 50.185 10.6031 50.1846L10.6011 50.1857Z"
        fill="#FFC700"
        stroke="#FFC700"
        stroke-width="4"
      />
    </svg>